<svg width="54" height="16" viewBox="0 0 54 16" fill="none" xmlns="http://www.w3.org/2000/svg">
<g clip-path="url(#clip0_2305_384)">
<path fill-rule="evenodd" clip-rule="evenodd" d="M33.0223 12.5445C29.9291 14.8245 25.4456 16.0409 21.5854 16.0409C16.1728 16.0409 11.3 14.039 7.61362 10.7094C7.32399 10.4476 7.5835 10.0908 7.93106 10.2947C11.9094 12.6094 16.8285 14.0019 21.9098 14.0019C25.3367 14.0019 29.1065 13.2929 32.5728 11.8216C33.0965 11.5992 33.5344 12.1645 33.0223 12.5445Z" fill="#FF9900"/>
<path fill-rule="evenodd" clip-rule="evenodd" d="M34.3084 11.0732C33.9145 10.5681 31.6948 10.8345 30.6984 10.9527C30.3949 10.9898 30.3486 10.7256 30.622 10.5356C32.3899 9.29139 35.2908 9.65053 35.6291 10.0676C35.9674 10.487 35.541 13.3949 33.8797 14.7828C33.6248 14.9959 33.3816 14.8824 33.4951 14.5997C33.8681 13.6683 34.7046 11.5806 34.3084 11.0732Z" fill="#FF9900"/>
<path fill-rule="evenodd" clip-rule="evenodd" d="M30.7681 1.75174V0.542239C30.7681 0.359192 30.9072 0.236389 31.074 0.236389H36.4889C36.6627 0.236389 36.8017 0.36151 36.8017 0.542239V1.57796C36.7994 1.75174 36.6534 1.97881 36.3939 2.33795L33.588 6.34413C34.6306 6.31864 35.7312 6.47388 36.6766 7.0068C36.8898 7.12729 36.9477 7.30338 36.9639 7.47716V8.76776C36.9639 8.94385 36.7693 9.15007 36.5654 9.04349C34.8994 8.16996 32.6866 8.07496 30.8446 9.05276C30.6569 9.15471 30.46 8.95081 30.46 8.77471V7.54899C30.46 7.35204 30.4623 7.01607 30.6592 6.71717L33.91 2.05527H31.0809C30.9072 2.05527 30.7681 1.93247 30.7681 1.75174Z" fill="white"/>
<path fill-rule="evenodd" clip-rule="evenodd" d="M11.0154 9.29836H9.368C9.21044 9.28678 9.08532 9.16861 9.07373 9.018V0.563094C9.07373 0.393949 9.21507 0.259559 9.39117 0.259559H10.9274C11.0872 0.266506 11.2147 0.389314 11.2263 0.542238V1.64747H11.2564C11.6572 0.579311 12.4103 0.0811462 13.4251 0.0811462C14.4562 0.0811462 15.1004 0.579311 15.5638 1.64747C15.9623 0.579311 16.8683 0.0811462 17.8391 0.0811462C18.5296 0.0811462 19.285 0.366143 19.7461 1.00565C20.2674 1.71698 20.1608 2.75038 20.1608 3.65635L20.1585 8.99251C20.1585 9.16165 20.0172 9.29836 19.8411 9.29836H18.196C18.0314 9.28678 17.8994 9.1547 17.8994 8.99251V4.51134C17.8994 4.15452 17.9318 3.26477 17.853 2.92648C17.7302 2.3588 17.3618 2.19893 16.8845 2.19893C16.486 2.19893 16.0689 2.46539 15.8998 2.89173C15.7306 3.31806 15.7468 4.03171 15.7468 4.51134V8.99251C15.7468 9.16165 15.6055 9.29836 15.4294 9.29836H13.7843C13.6175 9.28678 13.4877 9.1547 13.4877 8.99251L13.4854 4.51134C13.4854 3.5683 13.6406 2.18039 12.4705 2.18039C11.2865 2.18039 11.3329 3.53355 11.3329 4.51134V8.99251C11.3329 9.16165 11.1915 9.29836 11.0154 9.29836" fill="white"/>
<path fill-rule="evenodd" clip-rule="evenodd" d="M41.4636 0.0811462C43.9081 0.0811462 45.2311 2.18039 45.2311 4.84963C45.2311 7.4285 43.7691 9.47445 41.4636 9.47445C39.0632 9.47445 37.7563 7.3752 37.7563 4.75926C37.7563 2.1271 39.0794 0.0811462 41.4636 0.0811462ZM41.4775 1.80735C40.2634 1.80735 40.1869 3.46171 40.1869 4.4928C40.1869 5.5262 40.1707 7.73203 41.4636 7.73203C42.7403 7.73203 42.8006 5.95254 42.8006 4.86816C42.8006 4.15451 42.7704 3.30184 42.5549 2.62526C42.3696 2.03673 42.0012 1.80735 41.4775 1.80735Z" fill="white"/>
<path fill-rule="evenodd" clip-rule="evenodd" d="M48.4008 9.29836H46.7603C46.5958 9.28678 46.4637 9.1547 46.4637 8.99251L46.4614 0.535287C46.4753 0.380045 46.612 0.259559 46.7789 0.259559H48.3058C48.4495 0.266506 48.5676 0.363826 48.6001 0.495898V1.78881H48.6302C49.0913 0.632604 49.7377 0.0811462 50.8754 0.0811462C51.6145 0.0811462 52.3351 0.347607 52.7985 1.07748C53.2295 1.75405 53.2295 2.89173 53.2295 3.70964V9.0319C53.211 9.18019 53.0743 9.29836 52.9121 9.29836H51.26C51.1094 9.28678 50.9843 9.17556 50.9681 9.0319V4.43951C50.9681 3.51501 51.0747 2.16185 49.937 2.16185C49.5361 2.16185 49.1677 2.43063 48.9847 2.83843C48.753 3.35513 48.7229 3.86952 48.7229 4.43951V8.99251C48.7206 9.16165 48.5769 9.29836 48.4008 9.29836Z" fill="white"/>
<path fill-rule="evenodd" clip-rule="evenodd" d="M26.4514 5.25972C26.4514 5.90154 26.4676 6.43678 26.1432 7.00677C25.8814 7.47018 25.4643 7.75518 25.0032 7.75518C24.3707 7.75518 23.9999 7.27323 23.9999 6.5619C23.9999 5.15777 25.2581 4.9029 26.4514 4.9029V5.25972ZM28.1127 9.27516C28.0038 9.37248 27.8462 9.37943 27.7234 9.31455C27.1766 8.86041 27.077 8.64956 26.7781 8.21627C25.8744 9.13845 25.2326 9.41418 24.0625 9.41418C22.6746 9.41418 21.5972 8.55919 21.5972 6.8469C21.5972 5.50996 22.3201 4.59936 23.3535 4.15449C24.2479 3.76059 25.4967 3.69108 26.4514 3.58218V3.36901C26.4514 2.97743 26.4815 2.51402 26.2498 2.17574C26.0505 1.8722 25.6659 1.74708 25.3253 1.74708C24.6974 1.74708 24.139 2.06915 24.0023 2.73646C23.9745 2.88475 23.8656 3.03073 23.7149 3.03768L22.1185 2.86621C21.9841 2.83609 21.8335 2.72719 21.8729 2.52098C22.239 0.583927 23.9907 3.05176e-05 25.557 3.05176e-05C26.3587 3.05176e-05 27.406 0.213199 28.0385 0.820264C28.8402 1.56867 28.7638 2.56732 28.7638 3.65401V6.2213C28.7638 6.99287 29.0835 7.33116 29.3847 7.74823C29.489 7.89652 29.5122 8.07493 29.3778 8.18615C29.0418 8.46651 28.444 8.98785 28.115 9.27979L28.1127 9.27515" fill="white"/>
<path fill-rule="evenodd" clip-rule="evenodd" d="M4.85422 5.25972C4.85422 5.90154 4.87043 6.43678 4.54605 7.00677C4.28422 7.47018 3.86947 7.75518 3.40606 7.75518C2.7735 7.75518 2.4051 7.27323 2.4051 6.5619C2.4051 5.15777 3.66325 4.9029 4.85422 4.9029V5.25972ZM6.51554 9.27516C6.40664 9.37248 6.24908 9.37943 6.12627 9.31455C5.57945 8.86041 5.48213 8.64956 5.18092 8.21627C4.27727 9.13845 3.63777 9.41418 2.46534 9.41418C1.07974 9.41418 0 8.55919 0 6.8469C0 5.50996 0.725236 4.59936 1.75632 4.15449C2.6507 3.76059 3.89959 3.69108 4.85422 3.58218V3.36901C4.85422 2.97743 4.88434 2.51402 4.65495 2.17574C4.45336 1.8722 4.06874 1.74708 3.73045 1.74708C3.10253 1.74708 2.5418 2.06915 2.4051 2.73646C2.37729 2.88475 2.26839 3.03073 2.1201 3.03768L0.521336 2.86621C0.386947 2.83609 0.238655 2.72719 0.275728 2.52098C0.644139 0.583927 2.39351 3.05176e-05 3.95983 3.05176e-05C4.76153 3.05176e-05 5.80884 0.213199 6.44139 0.820264C7.24309 1.56867 7.16663 2.56732 7.16663 3.65401V6.2213C7.16663 6.99287 7.48638 7.33116 7.7876 7.74823C7.89418 7.89652 7.91735 8.07493 7.78296 8.18615C7.44699 8.46651 6.84919 8.98785 6.52017 9.27979L6.51554 9.27515" fill="white"/>
</g>
<defs>
<clipPath id="clip0_2305_384">
<rect width="53.2513" height="16" fill="white"/>
</clipPath>
</defs>
</svg>
