<svg width="156" height="57" viewBox="0 0 156 57" fill="none" xmlns="http://www.w3.org/2000/svg">
<path d="M27.7903 23.0592V34.1118C27.7902 34.3472 27.7003 34.5737 27.5391 34.7452C27.3778 34.9167 27.1572 35.0202 26.9222 35.0347L17.4648 35.6076L22.8513 32.5C23.0607 32.3789 23.2297 32.1988 23.3371 31.9821L27.7903 23.0592Z" fill="white"/>
<path d="M27.0359 21.2444C27.2398 21.3621 27.391 21.5531 27.4588 21.7786C27.5265 22.004 27.5057 22.2468 27.4005 22.4574L23.168 30.9348V24.7197C23.1673 24.4777 23.0952 24.2414 22.9609 24.0402L17.4604 15.7202L27.0359 21.2444Z" fill="white"/>
<path d="M26.5958 35.6718L17.0234 41.1981C16.8197 41.3158 16.5787 41.3513 16.3496 41.2974C16.1205 41.2435 15.9207 41.1042 15.7908 40.908L10.5659 33.0034L15.9524 36.111C16.1612 36.2323 16.4013 36.2889 16.6423 36.2736L26.5958 35.6718Z" fill="white"/>
<path d="M16.75 15.7543L21.9749 23.6579L16.5884 20.5504C16.3796 20.4291 16.1396 20.3722 15.8986 20.3867L5.94189 20.9906L15.5153 15.4643C15.7192 15.346 15.9607 15.3101 16.1903 15.364C16.4198 15.4179 16.6201 15.5576 16.75 15.7543V15.7543Z" fill="white"/>
<path d="M9.5746 32.6233L15.075 40.9433L5.50265 35.417C5.29899 35.2991 5.14791 35.108 5.08017 34.8827C5.01243 34.6573 5.03312 34.4146 5.13803 34.204L9.37053 25.7265V31.9417C9.36996 32.184 9.44095 32.4211 9.5746 32.6233V32.6233Z" fill="white"/>
<path d="M15.075 21.0537L9.68859 24.1613C9.47866 24.282 9.30924 24.4623 9.20174 24.6792L4.74756 33.6032V22.5495C4.74764 22.3141 4.83747 22.0876 4.99876 21.9161C5.16004 21.7446 5.38064 21.6411 5.61561 21.6266L15.075 21.0537Z" fill="white"/>
<path d="M151.599 33.5379C151.606 33.5439 151.613 33.5517 151.617 33.5604C151.621 33.5692 151.624 33.5789 151.624 33.5887C151.623 33.6069 151.615 33.6241 151.601 33.6365C151.588 33.6489 151.57 33.6555 151.552 33.6549H146.022L141.59 29.9487C141.577 29.9379 141.56 29.9321 141.543 29.9321C141.525 29.9321 141.509 29.9379 141.495 29.9487L137.051 33.6549H131.581C131.571 33.655 131.561 33.6531 131.552 33.6491C131.542 33.6452 131.534 33.6394 131.527 33.6322C131.521 33.6257 131.516 33.6181 131.513 33.6097C131.51 33.6013 131.509 33.5923 131.509 33.5834C131.51 33.5745 131.513 33.5658 131.517 33.558C131.521 33.5501 131.527 33.5433 131.534 33.5379L137.976 28.3959C137.983 28.3906 137.989 28.3839 137.994 28.3761C137.998 28.3684 138 28.3598 138.001 28.3509C138.002 28.3421 138 28.3333 137.997 28.3249C137.994 28.3166 137.99 28.309 137.983 28.3027L137.977 28.2975L131.914 23.1555C131.907 23.1496 131.901 23.1422 131.898 23.1338C131.894 23.1254 131.892 23.1162 131.892 23.1069C131.892 23.0978 131.894 23.0888 131.897 23.0805C131.901 23.0722 131.906 23.0647 131.913 23.0584C131.919 23.0522 131.927 23.0473 131.936 23.044C131.944 23.0408 131.953 23.0392 131.962 23.0395H137.404L141.498 26.6816C141.512 26.6945 141.531 26.7017 141.55 26.7017C141.569 26.7017 141.588 26.6945 141.602 26.6816L145.833 23.0395H151.235C151.245 23.0394 151.255 23.0414 151.264 23.0453C151.274 23.0493 151.282 23.055 151.289 23.0623C151.296 23.0682 151.301 23.0754 151.304 23.0835C151.308 23.0915 151.31 23.1002 151.31 23.1089C151.31 23.1177 151.308 23.1264 151.304 23.1344C151.301 23.1424 151.296 23.1496 151.289 23.1555L145.124 28.2965C145.117 28.302 145.111 28.309 145.107 28.3169C145.103 28.3248 145.1 28.3335 145.1 28.3424C145.099 28.3513 145.101 28.3603 145.104 28.3686C145.107 28.3769 145.112 28.3845 145.118 28.3907L145.125 28.3959L151.599 33.5379Z" fill="white"/>
<path d="M129.232 23.1069V33.5887C129.232 33.6069 129.224 33.6241 129.21 33.6365C129.197 33.6489 129.179 33.6555 129.161 33.655H125.132C125.113 33.6555 125.096 33.6489 125.082 33.6365C125.069 33.6241 125.061 33.6069 125.06 33.5887V23.1069C125.06 23.0977 125.062 23.0888 125.066 23.0804C125.07 23.0721 125.075 23.0646 125.082 23.0584C125.088 23.0521 125.096 23.0472 125.105 23.044C125.113 23.0408 125.122 23.0392 125.132 23.0395H129.159C129.168 23.039 129.178 23.0403 129.186 23.0434C129.195 23.0465 129.203 23.0513 129.21 23.0576C129.217 23.0639 129.222 23.0715 129.226 23.0799C129.23 23.0884 129.232 23.0976 129.232 23.1069V23.1069Z" fill="white"/>
<path d="M121.713 23.1069V33.5886C121.712 33.6069 121.704 33.624 121.691 33.6365C121.678 33.6489 121.66 33.6555 121.642 33.6549H117.777C117.759 33.6555 117.741 33.6489 117.728 33.6365C117.714 33.624 117.706 33.6069 117.705 33.5886V25.8301C117.705 25.821 117.703 25.8121 117.699 25.8039C117.696 25.7956 117.69 25.7882 117.684 25.782C117.677 25.7758 117.669 25.771 117.661 25.7679C117.652 25.7648 117.643 25.7634 117.634 25.7638C117.622 25.7636 117.611 25.7661 117.6 25.7711C117.59 25.7762 117.581 25.7836 117.574 25.7928L111.853 33.6259C111.846 33.635 111.837 33.6423 111.827 33.6473C111.816 33.6523 111.805 33.6549 111.794 33.6549H108.594L103.012 25.8861C103.006 25.878 102.999 25.8712 102.991 25.8659C102.983 25.8607 102.973 25.8571 102.964 25.8555C102.954 25.8538 102.944 25.8541 102.935 25.8564C102.925 25.8586 102.916 25.8627 102.908 25.8684C102.898 25.8739 102.89 25.8818 102.885 25.8915C102.879 25.9011 102.876 25.9121 102.876 25.9233V33.5886C102.875 33.6069 102.867 33.624 102.854 33.6365C102.841 33.6489 102.823 33.6555 102.805 33.6549H98.9294C98.9111 33.6555 98.8934 33.6489 98.8801 33.6365C98.8667 33.624 98.8587 33.6069 98.8579 33.5886V23.1069C98.8582 23.0977 98.8602 23.0888 98.864 23.0805C98.8677 23.0721 98.8731 23.0646 98.8797 23.0584C98.8863 23.0521 98.8941 23.0472 98.9027 23.044C98.9112 23.0408 98.9203 23.0393 98.9294 23.0395H105.415C105.427 23.0396 105.438 23.0425 105.448 23.0479C105.459 23.0533 105.467 23.0611 105.474 23.0706L110.225 29.8244C110.232 29.834 110.241 29.8418 110.251 29.8473C110.262 29.8527 110.273 29.8555 110.285 29.8555C110.297 29.8555 110.308 29.8527 110.319 29.8473C110.329 29.8418 110.338 29.834 110.345 29.8244L115.11 23.0696C115.117 23.0604 115.126 23.0529 115.136 23.0477C115.147 23.0425 115.158 23.0397 115.17 23.0395H121.639C121.648 23.0388 121.657 23.04 121.666 23.0431C121.675 23.0461 121.683 23.0509 121.69 23.0572C121.697 23.0635 121.703 23.0712 121.707 23.0797C121.711 23.0882 121.713 23.0975 121.713 23.1069V23.1069Z" fill="white"/>
<path d="M95.4562 23.1069V33.5887C95.4554 33.6069 95.4474 33.6241 95.434 33.6365C95.4207 33.6489 95.4029 33.6555 95.3847 33.6549H91.2775C91.2593 33.6555 91.2416 33.6489 91.2282 33.6365C91.2148 33.6241 91.2069 33.6069 91.2061 33.5887V23.1069C91.2063 23.0977 91.2084 23.0888 91.2121 23.0804C91.2159 23.0721 91.2212 23.0646 91.2278 23.0584C91.2345 23.0521 91.2423 23.0472 91.2508 23.044C91.2593 23.0408 91.2684 23.0392 91.2775 23.0395H95.3847C95.3938 23.0392 95.4029 23.0408 95.4114 23.044C95.4199 23.0472 95.4278 23.0521 95.4344 23.0584C95.441 23.0646 95.4464 23.0721 95.4501 23.0804C95.4538 23.0888 95.4559 23.0977 95.4562 23.1069V23.1069Z" fill="white"/>
<path d="M88.2715 31.2156V33.5887C88.2712 33.5978 88.2692 33.6067 88.2654 33.615C88.2617 33.6233 88.2563 33.6307 88.2497 33.6369C88.243 33.643 88.2352 33.6478 88.2267 33.6509C88.2181 33.6541 88.2091 33.6555 88.2 33.655H74.882C74.8638 33.6556 74.8461 33.649 74.8327 33.6366C74.8193 33.6241 74.8114 33.607 74.8105 33.5887V23.1069C74.8108 23.0977 74.8129 23.0888 74.8166 23.0804C74.8203 23.0721 74.8257 23.0646 74.8323 23.0584C74.839 23.0521 74.8468 23.0472 74.8553 23.044C74.8638 23.0408 74.8729 23.0392 74.882 23.0395H78.8556C78.8647 23.0392 78.8738 23.0408 78.8823 23.044C78.8908 23.0472 78.8986 23.0521 78.9053 23.0584C78.9119 23.0646 78.9172 23.0721 78.921 23.0804C78.9247 23.0888 78.9268 23.0977 78.927 23.1069V31.083C78.9278 31.1012 78.9358 31.1184 78.9492 31.1308C78.9626 31.1432 78.9803 31.1498 78.9985 31.1493H88.2C88.2091 31.1489 88.2181 31.1503 88.2267 31.1534C88.2352 31.1565 88.243 31.1613 88.2497 31.1675C88.2563 31.1736 88.2617 31.1811 88.2654 31.1893C88.2692 31.1976 88.2712 31.2065 88.2715 31.2156V31.2156Z" fill="white"/>
<path d="M71.7651 31.2155V33.5887C71.7643 33.6069 71.7564 33.6241 71.743 33.6365C71.7296 33.6489 71.7119 33.6555 71.6937 33.6549H56.8063C56.7881 33.6555 56.7704 33.6489 56.757 33.6365C56.7436 33.6241 56.7357 33.6069 56.7349 33.5887V23.0861C56.7357 23.0679 56.7436 23.0507 56.757 23.0383C56.7704 23.0259 56.7881 23.0193 56.8063 23.0198L71.6937 23.0395C71.7028 23.0392 71.7119 23.0408 71.7204 23.044C71.7289 23.0472 71.7367 23.0521 71.7434 23.0584C71.75 23.0646 71.7553 23.0721 71.7591 23.0804C71.7628 23.0888 71.7649 23.0977 71.7651 23.1069V25.4624C71.7649 25.4715 71.7628 25.4805 71.7591 25.4888C71.7553 25.4971 71.75 25.5046 71.7434 25.5109C71.7367 25.5171 71.7289 25.522 71.7204 25.5252C71.7119 25.5285 71.7028 25.53 71.6937 25.5297H60.9974C60.9884 25.5293 60.9795 25.5307 60.971 25.5337C60.9625 25.5368 60.9548 25.5415 60.9481 25.5475C60.9415 25.5536 60.9361 25.5609 60.9323 25.569C60.9285 25.5772 60.9263 25.586 60.9259 25.595V27.2088C60.9262 27.2179 60.9283 27.2268 60.932 27.2351C60.9358 27.2434 60.9411 27.2508 60.9478 27.257C60.9544 27.2631 60.9622 27.2679 60.9708 27.271C60.9793 27.2742 60.9883 27.2755 60.9974 27.2751H70.9282C70.9372 27.2747 70.9463 27.2761 70.9548 27.2792C70.9633 27.2823 70.9711 27.2871 70.9778 27.2933C70.9844 27.2995 70.9898 27.3069 70.9936 27.3152C70.9973 27.3234 70.9994 27.3324 70.9996 27.3414V29.3147C70.9988 29.3329 70.9909 29.3501 70.9775 29.3625C70.9641 29.3749 70.9464 29.3816 70.9282 29.381H60.9974C60.9884 29.3806 60.9795 29.382 60.971 29.385C60.9625 29.3881 60.9548 29.3928 60.9481 29.3988C60.9415 29.4049 60.9361 29.4122 60.9323 29.4203C60.9285 29.4285 60.9263 29.4373 60.9259 29.4463V31.0808C60.9262 31.0899 60.9283 31.0988 60.932 31.1071C60.9358 31.1154 60.9411 31.1228 60.9478 31.129C60.9544 31.1351 60.9622 31.1399 60.9708 31.143C60.9793 31.1462 60.9883 31.1476 60.9974 31.1471H71.6937C71.7029 31.1467 71.7121 31.1482 71.7208 31.1514C71.7294 31.1547 71.7373 31.1596 71.744 31.166C71.7507 31.1724 71.756 31.1801 71.7597 31.1886C71.7633 31.1971 71.7651 31.2063 71.7651 31.2155Z" fill="white"/>
<path d="M53.3147 23.0861V33.5887C53.3139 33.6069 53.3059 33.6241 53.2925 33.6365C53.2792 33.6489 53.2614 33.6555 53.2432 33.655H49.193C49.1839 33.6554 49.1748 33.654 49.1662 33.6509C49.1576 33.6478 49.1497 33.643 49.143 33.6369C49.1363 33.6307 49.1308 33.6233 49.127 33.615C49.1231 33.6068 49.1209 33.5978 49.1205 33.5887V29.6773C49.1202 29.6682 49.1182 29.6593 49.1144 29.651C49.1107 29.6428 49.1053 29.6353 49.0987 29.6292C49.092 29.623 49.0842 29.6182 49.0757 29.6151C49.0671 29.612 49.0581 29.6106 49.049 29.611H39.9842C39.966 29.6104 39.9483 29.6171 39.9349 29.6295C39.9215 29.6419 39.9136 29.6591 39.9128 29.6773V33.5887C39.912 33.6069 39.904 33.6241 39.8906 33.6365C39.8773 33.6489 39.8595 33.6555 39.8413 33.655H35.7673C35.749 33.6555 35.7313 33.6489 35.7179 33.6365C35.7046 33.6241 35.6966 33.6069 35.6958 33.5887V23.0861C35.6966 23.0679 35.7046 23.0507 35.7179 23.0383C35.7313 23.0259 35.749 23.0193 35.7673 23.0198H39.8423C39.8606 23.0193 39.8783 23.0259 39.8917 23.0383C39.905 23.0507 39.913 23.0679 39.9138 23.0861V26.8152C39.9141 26.8243 39.9161 26.8333 39.9199 26.8416C39.9236 26.85 39.929 26.8575 39.9356 26.8637C39.9422 26.87 39.95 26.8748 39.9586 26.8781C39.9671 26.8813 39.9762 26.8828 39.9853 26.8826H49.049C49.0582 26.883 49.0673 26.8815 49.0759 26.8784C49.0845 26.8752 49.0924 26.8703 49.099 26.864C49.1057 26.8577 49.111 26.8502 49.1147 26.8418C49.1184 26.8334 49.1204 26.8244 49.1205 26.8152V23.0861C49.1209 23.077 49.1231 23.0681 49.127 23.0598C49.1308 23.0515 49.1363 23.0441 49.143 23.038C49.1497 23.0318 49.1576 23.027 49.1662 23.0239C49.1748 23.0208 49.1839 23.0194 49.193 23.0198H53.2432C53.2614 23.0193 53.2792 23.0259 53.2925 23.0383C53.3059 23.0507 53.3139 23.0679 53.3147 23.0861Z" fill="white"/>
<path d="M49.1201 33.5887C49.1205 33.5978 49.1227 33.6067 49.1266 33.615C49.1304 33.6233 49.1359 33.6307 49.1426 33.6369C49.1494 33.643 49.1572 33.6478 49.1658 33.6509C49.1744 33.654 49.1835 33.6554 49.1926 33.655" fill="white"/>
<path d="M49.1202 29.6773C49.12 29.6682 49.1179 29.6593 49.1141 29.651C49.1104 29.6428 49.105 29.6353 49.0984 29.6292C49.0918 29.623 49.084 29.6182 49.0754 29.6151C49.0669 29.612 49.0579 29.6106 49.0488 29.611" fill="white"/>
<path d="M39.9841 29.611C39.9658 29.6104 39.9481 29.6171 39.9347 29.6295C39.9214 29.6419 39.9134 29.659 39.9126 29.6772" fill="white"/>
<path d="M39.8423 33.6549C39.8605 33.6555 39.8783 33.6489 39.8917 33.6365C39.9051 33.6241 39.913 33.6069 39.9138 33.5887" fill="white"/>
<path d="M35.6958 33.5887C35.6966 33.6069 35.7046 33.6241 35.7179 33.6365C35.7313 33.6489 35.749 33.6555 35.7673 33.6549" fill="white"/>
<path d="M35.7673 23.0198C35.749 23.0193 35.7313 23.0259 35.7179 23.0383C35.7046 23.0507 35.6966 23.0679 35.6958 23.0861" fill="white"/>
<path d="M39.9138 23.0861C39.913 23.0679 39.9051 23.0507 39.8917 23.0383C39.8783 23.0259 39.8605 23.0193 39.8423 23.0198" fill="white"/>
<path d="M39.9136 26.8183C39.9138 26.8274 39.9159 26.8364 39.9196 26.8447C39.9234 26.8531 39.9287 26.8606 39.9354 26.8668C39.942 26.8731 39.9498 26.8779 39.9583 26.8812C39.9669 26.8844 39.9759 26.8859 39.9851 26.8857" fill="white"/>
<path d="M49.0488 26.8857C49.058 26.8861 49.0671 26.8847 49.0757 26.8815C49.0843 26.8783 49.0921 26.8734 49.0988 26.8672C49.1054 26.8609 49.1108 26.8533 49.1144 26.8449C49.1181 26.8365 49.1201 26.8275 49.1202 26.8183" fill="white"/>
<path d="M49.1926 23.0198C49.1835 23.0194 49.1744 23.0208 49.1658 23.0239C49.1572 23.027 49.1494 23.0318 49.1426 23.038C49.1359 23.0441 49.1304 23.0515 49.1266 23.0598C49.1227 23.0681 49.1205 23.077 49.1201 23.0861" fill="white"/>
<path d="M53.3146 23.0861C53.3138 23.0679 53.3059 23.0507 53.2925 23.0383C53.2791 23.0259 53.2614 23.0193 53.2432 23.0198" fill="white"/>
<path d="M53.2432 33.6549C53.2614 33.6555 53.2791 33.6489 53.2925 33.6365C53.3059 33.6241 53.3138 33.6069 53.3146 33.5887" fill="white"/>
<path d="M71.6938 25.5297C71.703 25.53 71.712 25.5285 71.7206 25.5253C71.7291 25.522 71.7369 25.5171 71.7435 25.5109C71.7502 25.5046 71.7555 25.4971 71.7593 25.4888C71.763 25.4805 71.7651 25.4715 71.7653 25.4624" fill="white"/>
<path d="M60.9973 25.5297C60.9883 25.5293 60.9793 25.5307 60.9708 25.5337C60.9624 25.5368 60.9546 25.5415 60.948 25.5475C60.9413 25.5536 60.936 25.5609 60.9322 25.569C60.9284 25.5772 60.9262 25.586 60.9258 25.595" fill="white"/>
<path d="M60.9258 27.2088C60.926 27.2179 60.9281 27.2268 60.9319 27.2351C60.9356 27.2433 60.941 27.2508 60.9476 27.2569C60.9543 27.2631 60.9621 27.2679 60.9706 27.271C60.9791 27.2741 60.9882 27.2755 60.9973 27.2751" fill="white"/>
<path d="M70.9997 27.3466C70.9994 27.3375 70.9974 27.3286 70.9936 27.3203C70.9899 27.3121 70.9845 27.3046 70.9779 27.2985C70.9712 27.2923 70.9634 27.2875 70.9549 27.2844C70.9463 27.2813 70.9373 27.2799 70.9282 27.2803" fill="white"/>
<path d="M70.9282 29.3831C70.9465 29.3836 70.9642 29.377 70.9776 29.3646C70.9909 29.3522 70.9989 29.335 70.9997 29.3168" fill="white"/>
<path d="M60.9973 29.3831C60.9883 29.3827 60.9793 29.384 60.9708 29.3871C60.9624 29.3902 60.9546 29.3948 60.948 29.4009C60.9413 29.407 60.936 29.4143 60.9322 29.4224C60.9284 29.4306 60.9262 29.4394 60.9258 29.4484" fill="white"/>
<path d="M60.9258 31.0829C60.926 31.092 60.9281 31.1009 60.9319 31.1092C60.9356 31.1175 60.941 31.1249 60.9476 31.1311C60.9543 31.1372 60.9621 31.142 60.9706 31.1451C60.9791 31.1483 60.9882 31.1496 60.9973 31.1492" fill="white"/>
<path d="M71.7653 31.2156C71.7651 31.2065 71.763 31.1976 71.7592 31.1893C71.7555 31.181 71.7501 31.1736 71.7435 31.1674C71.7368 31.1613 71.729 31.1565 71.7205 31.1533C71.712 31.1502 71.7029 31.1488 71.6938 31.1492" fill="white"/>
<path d="M71.6938 33.6549C71.7121 33.6555 71.7298 33.6489 71.7432 33.6365C71.7566 33.6241 71.7645 33.6069 71.7653 33.5887" fill="white"/>
<path d="M56.7349 33.5887C56.7357 33.6069 56.7436 33.6241 56.757 33.6365C56.7704 33.6489 56.7881 33.6555 56.8063 33.6549" fill="white"/>
<path d="M56.8063 23.0198C56.7881 23.0193 56.7704 23.0259 56.757 23.0383C56.7436 23.0507 56.7357 23.0679 56.7349 23.0861" fill="white"/>
<path d="M71.7653 23.1068C71.7651 23.0977 71.763 23.0887 71.7593 23.0804C71.7555 23.0721 71.7502 23.0646 71.7435 23.0584C71.7369 23.0521 71.7291 23.0472 71.7206 23.044C71.712 23.0408 71.703 23.0392 71.6938 23.0395" fill="white"/>
<path d="M78.9321 31.0829C78.9329 31.1012 78.9409 31.1184 78.9543 31.1308C78.9676 31.1432 78.9854 31.1498 79.0036 31.1493" fill="white"/>
<path d="M88.2717 31.2156C88.2714 31.2065 88.2693 31.1976 88.2656 31.1893C88.2618 31.181 88.2565 31.1736 88.2498 31.1674C88.2432 31.1613 88.2354 31.1565 88.2268 31.1533C88.2183 31.1502 88.2093 31.1488 88.2002 31.1492" fill="white"/>
<path d="M88.2002 33.655C88.2093 33.6554 88.2183 33.6541 88.2268 33.6509C88.2354 33.6478 88.2432 33.643 88.2498 33.6368C88.2565 33.6307 88.2618 33.6232 88.2656 33.615C88.2693 33.6067 88.2714 33.5978 88.2717 33.5887" fill="white"/>
<path d="M74.8105 33.5887C74.8114 33.6069 74.8193 33.6241 74.8327 33.6365C74.8461 33.6489 74.8638 33.6555 74.882 33.6549" fill="white"/>
<path d="M74.882 23.0395C74.8729 23.0392 74.8638 23.0408 74.8553 23.044C74.8468 23.0472 74.839 23.0521 74.8323 23.0584C74.8257 23.0646 74.8203 23.0721 74.8166 23.0804C74.8129 23.0887 74.8108 23.0977 74.8105 23.1068" fill="white"/>
<path d="M78.9322 23.1068C78.9319 23.0977 78.9298 23.0887 78.9261 23.0804C78.9224 23.0721 78.9171 23.0646 78.9104 23.0584C78.9038 23.0521 78.896 23.0472 78.8875 23.044C78.879 23.0408 78.8699 23.0392 78.8608 23.0395" fill="white"/>
<path d="M91.2061 33.5887C91.2069 33.6069 91.2148 33.6241 91.2282 33.6365C91.2416 33.6489 91.2593 33.6555 91.2775 33.6549" fill="white"/>
<path d="M91.2775 23.0395C91.2684 23.0392 91.2593 23.0408 91.2508 23.044C91.2423 23.0472 91.2345 23.0521 91.2278 23.0584C91.2212 23.0646 91.2159 23.0721 91.2121 23.0804C91.2084 23.0887 91.2063 23.0977 91.2061 23.1068" fill="white"/>
<path d="M95.4562 23.1068C95.456 23.0977 95.4539 23.0887 95.4502 23.0804C95.4464 23.0721 95.4411 23.0646 95.4345 23.0584C95.4278 23.0521 95.42 23.0472 95.4115 23.044C95.403 23.0408 95.3939 23.0392 95.3848 23.0395" fill="white"/>
<path d="M95.3848 33.6549C95.403 33.6555 95.4207 33.6489 95.4341 33.6365C95.4475 33.6241 95.4554 33.6069 95.4562 33.5887" fill="white"/>
<path d="M108.573 33.6249C108.58 33.6343 108.589 33.6419 108.6 33.6471C108.61 33.6523 108.622 33.655 108.633 33.655" fill="white"/>
<path d="M103.013 25.8871C103.007 25.879 103 25.8722 102.992 25.8669C102.983 25.8617 102.974 25.8581 102.965 25.8565C102.955 25.8549 102.945 25.8552 102.936 25.8574C102.926 25.8596 102.917 25.8637 102.909 25.8695C102.899 25.8749 102.891 25.8828 102.885 25.8925C102.88 25.9021 102.877 25.9132 102.877 25.9243" fill="white"/>
<path d="M102.811 33.6549C102.829 33.6555 102.847 33.6489 102.86 33.6365C102.874 33.6241 102.882 33.6069 102.882 33.5887" fill="white"/>
<path d="M98.8579 33.5887C98.8587 33.6069 98.8667 33.6241 98.8801 33.6365C98.8935 33.6489 98.9113 33.6555 98.9295 33.6549" fill="white"/>
<path d="M98.9295 23.0395C98.9204 23.0392 98.9113 23.0408 98.9028 23.044C98.8942 23.0472 98.8864 23.0521 98.8797 23.0584C98.8731 23.0646 98.8677 23.0721 98.864 23.0804C98.8602 23.0887 98.8582 23.0977 98.8579 23.1068" fill="white"/>
<path d="M105.474 23.0706C105.467 23.0611 105.459 23.0533 105.448 23.0479C105.438 23.0425 105.427 23.0396 105.415 23.0395" fill="white"/>
<path d="M110.226 29.8244C110.232 29.834 110.241 29.8418 110.252 29.8473C110.262 29.8527 110.273 29.8555 110.285 29.8555C110.297 29.8555 110.308 29.8527 110.319 29.8473C110.329 29.8418 110.338 29.834 110.345 29.8244" fill="white"/>
<path d="M115.173 23.0395C115.161 23.0397 115.15 23.0425 115.139 23.0477C115.129 23.0529 115.12 23.0604 115.113 23.0696" fill="white"/>
<path d="M121.713 23.1068C121.713 23.0977 121.711 23.0887 121.707 23.0804C121.703 23.0721 121.698 23.0646 121.691 23.0584C121.685 23.0521 121.677 23.0472 121.668 23.044C121.66 23.0408 121.651 23.0392 121.642 23.0395" fill="white"/>
<path d="M121.642 33.6549C121.66 33.6555 121.678 33.6489 121.691 33.6365C121.704 33.6241 121.712 33.6069 121.713 33.5887" fill="white"/>
<path d="M117.707 33.5887C117.707 33.6069 117.715 33.6241 117.729 33.6365C117.742 33.6489 117.76 33.6555 117.778 33.6549" fill="white"/>
<path d="M117.706 25.8301C117.706 25.821 117.704 25.8121 117.7 25.8039C117.696 25.7956 117.691 25.7882 117.684 25.782C117.678 25.7758 117.67 25.771 117.661 25.7679C117.653 25.7648 117.644 25.7634 117.635 25.7638C117.623 25.7636 117.612 25.7661 117.601 25.7711C117.591 25.7762 117.582 25.7836 117.575 25.7928" fill="white"/>
<path d="M111.795 33.655C111.806 33.655 111.818 33.6524 111.828 33.6473C111.838 33.6423 111.847 33.635 111.854 33.626" fill="white"/>
<path d="M129.233 23.1068C129.232 23.0977 129.23 23.0887 129.227 23.0804C129.223 23.0721 129.217 23.0646 129.211 23.0584C129.204 23.0521 129.196 23.0472 129.188 23.044C129.179 23.0408 129.17 23.0392 129.161 23.0395" fill="white"/>
<path d="M129.161 33.6549C129.179 33.6555 129.197 33.6489 129.21 33.6365C129.224 33.6241 129.232 33.6069 129.233 33.5887" fill="white"/>
<path d="M125.062 33.5887C125.063 33.6069 125.071 33.6241 125.084 33.6365C125.098 33.6489 125.115 33.6555 125.133 33.6549" fill="white"/>
<path d="M125.132 23.0395C125.122 23.0392 125.113 23.0408 125.105 23.044C125.096 23.0472 125.088 23.0521 125.082 23.0584C125.075 23.0646 125.07 23.0721 125.066 23.0804C125.062 23.0887 125.06 23.0977 125.06 23.1068" fill="white"/>
<path d="M131.958 23.0395C131.949 23.0392 131.94 23.0408 131.931 23.044C131.923 23.0473 131.915 23.0522 131.908 23.0584C131.902 23.0647 131.897 23.0722 131.893 23.0805C131.889 23.0888 131.887 23.0978 131.887 23.1069C131.887 23.1162 131.889 23.1254 131.893 23.1338C131.897 23.1422 131.903 23.1496 131.91 23.1555" fill="white"/>
<path d="M137.421 23.0592C137.407 23.0466 137.39 23.0396 137.371 23.0395Z" fill="white"/>
<path d="M141.498 26.6816C141.512 26.6945 141.531 26.7017 141.55 26.7017C141.569 26.7017 141.588 26.6945 141.602 26.6816" fill="white"/>
<path d="M145.848 23.0395C145.831 23.0397 145.813 23.0463 145.8 23.0582Z" fill="white"/>
<path d="M151.278 23.1556C151.285 23.1496 151.29 23.1424 151.294 23.1344C151.297 23.1264 151.299 23.1177 151.299 23.1089C151.299 23.1002 151.297 23.0915 151.294 23.0835C151.29 23.0754 151.285 23.0682 151.278 23.0623C151.272 23.055 151.263 23.0493 151.254 23.0453C151.245 23.0414 151.235 23.0394 151.225 23.0395" fill="white"/>
<path d="M145.113 28.2965C145.106 28.302 145.101 28.309 145.096 28.3169C145.092 28.3248 145.09 28.3335 145.089 28.3424C145.089 28.3514 145.09 28.3603 145.094 28.3686C145.097 28.3769 145.102 28.3845 145.108 28.3907L145.114 28.3959" fill="white"/>
<path d="M151.552 33.6549C151.57 33.6555 151.588 33.6489 151.602 33.6365C151.615 33.6241 151.623 33.6069 151.624 33.5887C151.624 33.5789 151.621 33.5693 151.617 33.5605C151.613 33.5517 151.607 33.544 151.599 33.5379" fill="white"/>
<path d="M146.001 33.6374C146.014 33.6487 146.031 33.6549 146.049 33.655Z" fill="white"/>
<path d="M141.59 29.9487C141.577 29.9379 141.56 29.9321 141.543 29.9321C141.525 29.9321 141.509 29.9379 141.495 29.9487" fill="white"/>
<path d="M137.023 33.655C137.041 33.655 137.058 33.6488 137.072 33.6374Z" fill="white"/>
<path d="M131.534 33.5379C131.527 33.5433 131.521 33.5502 131.517 33.558C131.513 33.5659 131.51 33.5745 131.509 33.5834C131.509 33.5923 131.51 33.6013 131.513 33.6097C131.516 33.6181 131.521 33.6258 131.527 33.6322C131.534 33.6395 131.542 33.6452 131.552 33.6492C131.561 33.6531 131.571 33.6551 131.581 33.655" fill="white"/>
<path d="M137.976 28.396C137.983 28.3907 137.989 28.3839 137.993 28.3761C137.998 28.3684 138 28.3598 138.001 28.351C138.001 28.3422 138 28.3333 137.997 28.325C137.994 28.3166 137.989 28.3091 137.983 28.3027L137.977 28.2975" fill="white"/>
</svg>
