<svg width="97" height="24" viewBox="0 0 97 24" fill="none" xmlns="http://www.w3.org/2000/svg">
<path d="M2.01611 16.6041C4.22019 18.8082 7.74672 18.8082 9.90183 16.6041L10.0977 16.4082C11.1753 15.3306 9.02019 9.60001 10.0977 8.52246L2.01611 16.6041Z" fill="url(#paint0_linear_90_1241)"/>
<path d="M10.3429 8.27755L10.147 8.47347C9.06945 9.55102 11.2246 15.2816 10.147 16.3592L18.2776 8.22857C16.0735 6.07347 12.547 6.07347 10.3429 8.27755Z" fill="url(#paint1_linear_90_1241)"/>
<path d="M2.01623 8.66939C-0.138873 10.8735 -0.138873 14.4 2.01623 16.5551L10.3428 8.22858C12.5468 6.0245 12.5468 2.49797 10.3428 0.342865L2.01623 8.66939Z" fill="url(#paint2_linear_90_1241)"/>
<path d="M9.9508 16.6041C7.7957 18.8082 7.7957 22.3347 9.9508 24.4898L18.2773 16.1633C20.4814 13.9592 20.4814 10.4327 18.2773 8.27756L9.9508 16.6041Z" fill="url(#paint3_linear_90_1241)"/>
<path d="M50.653 12.4408C50.5061 11.8531 50.2122 11.3143 49.9183 10.8245C49.3306 9.94286 48.5959 9.20817 47.6653 8.71838C46.1959 7.9347 44.4816 7.73879 42.9143 8.22858C39.6326 9.20817 37.7224 12.6367 38.653 15.9674C38.751 16.3102 38.9469 16.8 38.9469 16.8C39.4857 18.0735 40.4653 19.102 41.6898 19.6898C42.6204 20.1796 43.6489 20.4735 44.6775 20.4735C45.2653 20.4735 45.853 20.3755 46.4408 20.2286C47.6653 19.8857 48.7428 19.151 49.5265 18.1714L49.5755 18.1225C49.7714 17.8776 49.9673 17.5837 50.1143 17.2898C50.4081 16.8 50.2122 16.1143 49.7224 15.8204C49.5755 15.7225 49.3796 15.6735 49.1836 15.6735C48.7918 15.6735 48.4489 15.8694 48.253 16.2123C48.0081 16.702 47.6163 17.0939 47.2245 17.4367C47.1755 17.4367 47.1755 17.4857 47.1265 17.5347C45.853 18.5143 44.0898 18.6123 42.6694 17.8286C42.0326 17.4857 41.4938 16.9959 41.151 16.3592L49.9673 13.7633C50.5061 13.6163 50.8 13.0286 50.653 12.4408C50.653 12.4898 50.653 12.4898 50.653 12.4408ZM44.6775 10.0898C45.3632 10.0898 46.0489 10.2367 46.6367 10.5796C47.2245 10.9225 47.7143 11.4123 48.1061 11.951L48.1551 12.049L40.5143 14.302C40.5143 13.5674 40.6612 12.8327 41.0041 12.1959C41.7387 10.9225 43.1102 10.0898 44.6775 10.0898Z" fill="#382757"/>
<path d="M61.967 18.4653H56.1385L62.6528 8.91428C62.8487 8.66938 62.7507 8.27755 62.5058 8.08163C62.4079 8.03265 62.3099 7.98367 62.163 7.98367H53.8854C53.3466 7.98367 52.9058 8.42449 52.9058 8.96326C52.9058 9.50204 53.3466 9.94286 53.8854 9.94286H59.4201L52.9058 19.4939C52.7589 19.6898 52.7589 19.8857 52.8568 20.0816C52.9548 20.2775 53.1507 20.3755 53.3956 20.3755H61.9181C62.4568 20.3755 62.8977 19.9347 62.8977 19.3959C62.8977 18.8571 62.5058 18.4653 61.967 18.4653Z" fill="#382757"/>
<path d="M74.8489 18.4653H69.0203L75.5346 8.91428C75.6326 8.71837 75.6815 8.52245 75.5836 8.32653C75.4856 8.13061 75.2897 8.03265 75.0448 8.03265H66.7673C66.2285 8.03265 65.7877 8.47347 65.7877 9.01225C65.7877 9.55102 66.2285 9.99184 66.7673 9.99184H72.3019L65.8366 19.5429C65.6407 19.7878 65.7387 20.1796 65.9836 20.3755C66.0815 20.4245 66.1795 20.4735 66.3264 20.4735H74.8489C75.3877 20.4735 75.8285 20.0327 75.8285 19.4939C75.8285 18.9551 75.3877 18.4653 74.8489 18.4653Z" fill="#382757"/>
<path d="M80.5797 2.59592C80.0409 2.59592 79.6001 3.03673 79.6001 3.57551V19.4939C79.6001 20.0327 80.0409 20.4735 80.5797 20.4735C81.1185 20.4735 81.5593 20.0327 81.5593 19.4939V3.62449C81.5593 3.08571 81.1674 2.6449 80.6287 2.59592H80.5797Z" fill="#382757"/>
<path d="M96.8896 12.4408C96.7427 11.8531 96.4488 11.3143 96.1549 10.8245C94.6366 8.52246 91.7958 7.44491 89.1509 8.22859C85.8692 9.20818 83.959 12.6367 84.9386 15.9674C85.0366 16.3102 85.2325 16.8 85.2325 16.8C85.7713 18.0735 86.7509 19.1021 87.9754 19.6898C90.6203 21.1102 93.9019 20.4735 95.8121 18.1714L95.8611 18.1225C96.057 17.8776 96.2529 17.5837 96.3998 17.2898C96.6937 16.8 96.5468 16.1143 96.008 15.8204C96.008 15.8204 96.008 15.8204 95.959 15.8204C95.4692 15.5265 94.7835 15.7225 94.5386 16.2123C94.2937 16.7021 93.9019 17.0939 93.51 17.4367C93.4611 17.4367 93.4611 17.4857 93.4121 17.5347C93.0203 17.8286 92.5794 18.0735 92.0896 18.1714C91.0611 18.4653 89.9345 18.3674 88.9549 17.8286C88.3182 17.4857 87.7794 16.9959 87.4366 16.3592L96.2039 13.8123C96.7427 13.6163 97.0366 13.0286 96.8896 12.4408ZM90.9141 10.0898C91.5998 10.0898 92.2856 10.2367 92.8733 10.5796C93.4611 10.9225 93.9509 11.4123 94.3427 11.951L94.3917 12.049L86.7509 14.3021C86.7509 13.5674 86.8978 12.8327 87.2407 12.1959C87.9754 10.8735 89.3468 10.0408 90.8652 10.0408L90.9141 10.0898Z" fill="#382757"/>
<path d="M35.3226 14.8898C34.9797 14.449 34.5389 14.0571 34.0491 13.8122C33.0695 13.3714 31.9919 13.0775 30.9144 12.9796L30.7185 12.9306C29.9838 12.8816 29.2981 12.6857 28.6124 12.4408C28.2695 12.2939 28.0246 11.951 28.0736 11.5592C28.0736 10.7265 29.0042 10.0898 30.1797 10.0898C31.3062 10.0898 32.4328 10.4327 33.3634 11.0694C33.8532 11.3633 34.5389 11.2163 34.8328 10.7265C35.1266 10.2367 34.9797 9.55102 34.4899 9.25714C33.9511 8.91428 33.3634 8.62041 32.7266 8.37551C31.894 8.08163 31.0613 7.98367 30.1797 7.98367C29.1021 7.98367 28.0736 8.32653 27.2409 8.96327C26.4083 9.6 25.9185 10.5796 25.9185 11.6082C25.8695 12.7837 26.5552 13.8612 27.6328 14.351C28.5144 14.7429 29.445 14.9878 30.3756 15.0367H30.5226C32.9226 15.4286 33.6573 15.7714 33.6573 16.5551C33.6573 17.5347 32.6777 18.1714 31.1103 18.2204H31.0613C29.9348 18.2204 28.8573 17.8775 27.9756 17.2408L27.8287 17.1429C27.3389 16.849 26.6532 16.9959 26.3593 17.4857C26.0654 17.9755 26.2124 18.6612 26.7021 18.9551L26.8001 19.0531H26.8491C28.0736 19.9347 29.5919 20.4245 31.1103 20.4245H31.2083C32.3838 20.4735 33.5593 20.0816 34.5389 19.3959C35.3715 18.7102 35.8613 17.7306 35.8613 16.6531C35.8613 15.9673 35.6654 15.3796 35.3226 14.8898Z" fill="#382757"/>
<defs>
<linearGradient id="paint0_linear_90_1241" x1="9.69548" y1="16.8197" x2="5.77241" y2="12.1424" gradientUnits="userSpaceOnUse">
<stop stop-color="#CE5DCB"/>
<stop offset="0.21" stop-color="#C558CC"/>
<stop offset="0.55" stop-color="#AC4ACF"/>
<stop offset="0.98" stop-color="#8534D4"/>
<stop offset="1" stop-color="#8333D4"/>
</linearGradient>
<linearGradient id="paint1_linear_90_1241" x1="9.83946" y1="11.4981" x2="18.2687" y2="11.4981" gradientUnits="userSpaceOnUse">
<stop offset="0.02" stop-color="#FF5667"/>
<stop offset="0.66" stop-color="#FC8B82"/>
<stop offset="1" stop-color="#FBA28E"/>
</linearGradient>
<linearGradient id="paint2_linear_90_1241" x1="0.402988" y1="8.46858" x2="12.0011" y2="8.46858" gradientUnits="userSpaceOnUse">
<stop stop-color="#00B874"/>
<stop offset="0.51" stop-color="#29D3A2"/>
<stop offset="0.68" stop-color="#53DFB6"/>
<stop offset="1" stop-color="#9FF4D9"/>
</linearGradient>
<linearGradient id="paint3_linear_90_1241" x1="8.30817" y1="16.3739" x2="19.9062" y2="16.3739" gradientUnits="userSpaceOnUse">
<stop stop-color="#FCD77E"/>
<stop offset="0.52" stop-color="#FEA500"/>
<stop offset="1" stop-color="#FF5B00"/>
</linearGradient>
</defs>
</svg>
