<svg width="34" height="34" viewBox="0 0 34 34" fill="none" xmlns="http://www.w3.org/2000/svg">
<path fill-rule="evenodd" clip-rule="evenodd" d="M16.9446 2.34929L17.7277 1.17464L20.1221 0L22.2003 1.17464L21.9393 2.34929H23.7816L25.4532 6.64126V8.31287L23.7816 22.4086V32.1159C23.7816 32.5053 23.5561 32.8594 23.1976 33.0115C22.6375 33.2492 21.7811 33.589 21.1161 33.7484C19.6096 34.1096 12.9104 34.0571 11.6228 33.7484C10.9577 33.589 10.1014 33.2492 9.54129 33.0115C9.1828 32.8594 8.95725 32.5053 8.95725 32.1159V22.4086L7.28564 8.31287V6.64126L8.95725 2.34929H16.9446ZM18.6382 2.34929H20.5503L20.9805 1.44572L20.1221 0.858394L18.7216 1.80714L18.6382 2.34929Z" fill="#FC3B1D"/>
<path d="M19.2949 16.0195V17.4141C19.2949 18.082 19.2285 18.6523 19.0957 19.125C18.9668 19.5938 18.7793 19.9746 18.5332 20.2676C18.2871 20.5605 17.9922 20.7754 17.6484 20.9121C17.3086 21.0488 16.9277 21.1172 16.5059 21.1172C16.1699 21.1172 15.8574 21.0742 15.5684 20.9883C15.2832 20.9023 15.0254 20.7676 14.7949 20.584C14.5645 20.4004 14.3672 20.1641 14.2031 19.875C14.043 19.582 13.918 19.2324 13.8281 18.8262C13.7422 18.4199 13.6992 17.9492 13.6992 17.4141V16.0195C13.6992 15.3477 13.7656 14.7812 13.8984 14.3203C14.0312 13.8555 14.2207 13.4785 14.4668 13.1895C14.7129 12.8965 15.0059 12.6836 15.3457 12.5508C15.6895 12.418 16.0723 12.3516 16.4941 12.3516C16.834 12.3516 17.1465 12.3945 17.4316 12.4805C17.7207 12.5625 17.9785 12.6934 18.2051 12.873C18.4355 13.0527 18.6309 13.2871 18.791 13.5762C18.9551 13.8613 19.0801 14.207 19.166 14.6133C19.252 15.0156 19.2949 15.4844 19.2949 16.0195ZM17.8828 17.6133V15.8086C17.8828 15.4688 17.8633 15.1699 17.8242 14.9121C17.7852 14.6504 17.7266 14.4297 17.6484 14.25C17.5742 14.0664 17.4805 13.918 17.3672 13.8047C17.2539 13.6875 17.125 13.6035 16.9805 13.5527C16.8359 13.498 16.6738 13.4707 16.4941 13.4707C16.2754 13.4707 16.0801 13.5137 15.9082 13.5996C15.7363 13.6816 15.5918 13.8145 15.4746 13.998C15.3574 14.1816 15.2676 14.4238 15.2051 14.7246C15.1465 15.0215 15.1172 15.3828 15.1172 15.8086V17.6133C15.1172 17.957 15.1367 18.2598 15.1758 18.5215C15.2148 18.7832 15.2734 19.0078 15.3516 19.1953C15.4297 19.3789 15.5234 19.5312 15.6328 19.6523C15.7461 19.7695 15.875 19.8555 16.0195 19.9102C16.168 19.9648 16.3301 19.9922 16.5059 19.9922C16.7285 19.9922 16.9258 19.9492 17.0977 19.8633C17.2695 19.7773 17.4141 19.6406 17.5312 19.4531C17.6484 19.2617 17.7363 19.0137 17.7949 18.709C17.8535 18.4043 17.8828 18.0391 17.8828 17.6133Z" fill="white"/>
</svg>
