<svg width="40" height="40" viewBox="0 0 40 40" fill="none" xmlns="http://www.w3.org/2000/svg">
<path d="M30 18.75H34.2275C34.4596 18.75 34.6872 18.6854 34.8846 18.5633C35.0821 18.4413 35.2417 18.2666 35.3455 18.059L38.2212 12.3076C38.3641 12.0219 38.3921 11.6922 38.2995 11.3864C38.2069 11.0806 38.0007 10.8218 37.7233 10.6633L30 6.25" stroke="black" stroke-linecap="round" stroke-linejoin="round"/>
<path d="M10.0001 18.75H5.77266C5.54052 18.75 5.31297 18.6854 5.1155 18.5633C4.91803 18.4413 4.75844 18.2666 4.65463 18.059L1.77894 12.3076C1.63605 12.0219 1.60802 11.6922 1.70061 11.3864C1.7932 11.0806 1.99938 10.8218 2.2768 10.6633L10.0001 6.25" stroke="black" stroke-linecap="round" stroke-linejoin="round"/>
<path d="M25 6.25C25 7.57608 24.4732 8.84785 23.5355 9.78553C22.5979 10.7232 21.3261 11.25 20 11.25C18.6739 11.25 17.4021 10.7232 16.4645 9.78553C15.5268 8.84785 15 7.57608 15 6.25H10V32.5C10 32.8315 10.1317 33.1495 10.3661 33.3839C10.6005 33.6183 10.9185 33.75 11.25 33.75H28.75C29.0815 33.75 29.3995 33.6183 29.6339 33.3839C29.8683 33.1495 30 32.8315 30 32.5V6.25H25Z" stroke="black" stroke-linecap="round" stroke-linejoin="round"/>
</svg>
