<svg width="30" height="34" viewBox="0 0 30 34" fill="none" xmlns="http://www.w3.org/2000/svg">
<path d="M28.875 9.60436V24.3957C28.875 24.5285 28.8397 24.6589 28.7728 24.7737C28.7059 24.8884 28.6097 24.9833 28.494 25.0486L15.369 32.4671C15.2565 32.5307 15.1293 32.5642 15 32.5642C14.8707 32.5642 14.7435 32.5307 14.631 32.4671L1.50596 25.0486C1.39033 24.9833 1.29414 24.8884 1.2272 24.7737L0.796815 25.0248L1.2272 24.7737C1.16027 24.6589 1.125 24.5285 1.125 24.3957V9.60436C1.125 9.47154 1.16027 9.34111 1.2272 9.22639C1.29414 9.11168 1.39033 9.01679 1.50596 8.95144L14.631 1.53296C14.7435 1.46932 14.8707 1.43588 15 1.43588C15.1293 1.43588 15.2565 1.46932 15.369 1.53296L28.494 8.95144C28.6097 9.01679 28.7059 9.11168 28.7728 9.22639C28.8397 9.34111 28.875 9.47154 28.875 9.60436Z" stroke="#A7A7A7"/>
</svg>
